<svg xmlns="http://www.w3.org/2000/svg" aria-hidden="true" style="position:absolute;width:0;height:0;overflow:hidden"><defs><symbol id="icon-antenna" viewBox="0 0 32 32"><path fill="#2e2f42" d="m31 22-9-8 1-5h1a2 2 0 1 0-2-1h-5L9 0a1 1 0 0 0-1 0L7 2l1 1a15 15 0 0 0 2 18v7H4a3 3 0 0 0-3 2v1l1 1h24a1 1 0 0 0 1-1v-1a3 3 0 0 0-3-2h-6v-3a15 15 0 0 0 3 0 15 15 0 0 0 7-1h1a1 1 0 0 0 0 1 1 1 0 0 0 0-1l2-1a1 1 0 0 0 0-1zM23 6a1 1 0 1 1 1 2 1 1 0 0 1-1-2zm-1 4-1 3-1-1 2-2zm-1-1-2 2-1-2h3zm3 20a2 2 0 0 1 2 1v1H2v-1a2 2 0 0 1 2-1h20zm-7-2v1h-6v-1h6zm-6-1v-4c0-2 1-3 3-3s3 1 3 3v4h-6zm7-2v-2c0-2-2-4-4-4a4 4 0 0 0-3 2A14 14 0 0 1 8 4l19 19a14 14 0 0 1-9 1zm11-1L8 2l1-1 8 8 13 13-1 1z" style="fill:var(--color1, #2e2f42)"/><path fill="#4d5ae5" d="M14 20a2 2 0 1 0 0 3 2 2 0 1 0 0-3zm0 2a1 1 0 0 1-1-1 1 1 0 0 1 1 0 1 1 0 0 1 0 1z" style="fill:var(--color2, #4d5ae5)"/></symbol><symbol id="icon-astronaut" viewBox="0 0 32 32"><path fill="#4d5ae5" d="M32 5a1 1 0 0 0 0-1h-2l-1-2h-1l-1 2h-2a1 1 0 0 0 0 1l1 1v3a1 1 0 0 0 1 0l1-1 2 1a1 1 0 0 0 1-1l-1-2 2-1zm-2 1a1 1 0 0 0-1 0l1 1h-1a1 1 0 0 0-1 0h-1V6l-1-1h1a1 1 0 0 0 1 0V4l1 1h1v1zm-4 15h-1v1h1v-1zm0 2h-1v1h1v-1zm1-1h-1v1h1v-1zm-2 0h-1v1h1v-1zm-3 4h-1v1h1v-1zm0 3h-1v1h1v-1zm1-2h-1v2h1v-2zm-2 0h-1v2h1v-2zm-5-3h-1v1h1v-1zm0 2h-1v1h1v-1zm1-1h-1v1h1v-1zm-2 0h-1v1h1v-1zM6 6H5v1h1V6zm0 2H5v1h1V8zM7 7H6v1h1V7zM5 7H4v1h1V7z" style="fill:var(--color2, #4d5ae5)"/><path fill="#2e2f42" d="M25 14a2 2 0 0 0-1-1 2 2 0 0 0-2 1l-1 1-2 1h-1a7 7 0 0 0-3-14c-4 0-7 3-7 7a7 7 0 0 0 1 4H6l-3 2-2 1a2 2 0 0 0-1 2l1 1a2 2 0 0 0 2 0l1-1 2-1h2l-6 5-1 2a2 2 0 0 0 0 2 2 2 0 0 0 2 0l2-1 1-2 1 1-2 2-1 1a2 2 0 0 0 0 3 2 2 0 0 0 2 0l4-4 1-1 5-6 4 1 3-2 2-1v-3zM2 18a1 1 0 0 1-1-1l2-1v1l-1 1zm4-2-2 1v-2l2-1v2zm15-7a6 6 0 0 1-1 3l-4-2a2 2 0 0 0-1-1l2-5c2 0 4 3 4 5zM9 9a6 6 0 0 1 7-5l-2 4a2 2 0 1 0 0 4l2-1 4 2a6 6 0 0 1-5 2c-3 0-6-2-6-6zm6 1a1 1 0 0 1-2 0 1 1 0 0 1 2 0zM2 25a1 1 0 0 1 0-1l1-1v1l-1 1zm4 4a1 1 0 0 1-1 0 1 1 0 0 1 0-1l1-1 1 1-1 1zm3-4-2 2v-1l1-1v-1l-1-2a1 1 0 0 0-1 0l-2 1H3l3-3 4 4-1 1zm7-7v1l-5 5-5-5 3-2a1 1 0 0 0 0-1H7v-2h3a7 7 0 0 0 5 2h1l3 1v2l-3-1zm4 1v-2l1-1 1 1-2 2zm4-3-1 1-1-2h1a1 1 0 0 1 1 0 1 1 0 0 1 0 1z" style="fill:var(--color1, #2e2f42)"/><path fill="#2e2f42" d="m14 19-3-3-2 3 2 2 3-2zm-3 1-1-1 1-1 1 1-1 1zm6-15v1l2 2h1c0-2-2-3-3-3zm3 4h-1v1h1V9z" style="fill:var(--color1, #2e2f42)"/></symbol><symbol id="icon-clock" viewBox="0 0 32 32"><path fill="#2e2f42" d="M31 15a15 15 0 1 0-30 0 15 15 0 0 0 10 15 1 1 0 0 0 1 0 1 1 0 0 0 0-1l4-12a2 2 0 1 0-1-3l-5-6a1 1 0 0 0-1 1l5 5a2 2 0 0 0 1 3l-4 11a14 14 0 1 1 18-8 14 14 0 0 1-7 8l-1-2a1 1 0 0 0-1 0l-4 3a1 1 0 0 0 1 1l5 2a1 1 0 0 0 0-1v-2a15 15 0 0 0 9-14zm-15 0a1 1 0 1 1 0 1 1 1 0 0 1 0-1zm2 15 2-2 1 2h-3z" style="fill:var(--color1, #2e2f42)"/><path fill="#4d5ae5" d="M15 3v1a1 1 0 1 0 2 0V3a1 1 0 0 0-2 0zM4 15a1 1 0 0 0 0 1h1a1 1 0 1 0 0-1H4zm24 1a1 1 0 1 0 0-1h-1a1 1 0 0 0 0 1h1z" style="fill:var(--color2, #4d5ae5)"/></symbol><symbol id="icon-diagram" viewBox="0 0 32 32"><path fill="#4d5ae5" d="M15 15h1v5h-1v-5zm4 2h1v3h-1v-3zm-8 2h1v1h-1v-1zm-4-1h2v2H7v-2z" style="fill:var(--color2, #4d5ae5)"/><path fill="#2e2f42" d="M2 28h25a2 2 0 0 0 2-1v-2a2 2 0 0 0-2-2V10l3-3a2 2 0 1 0-1-1l-2 2V7a2 2 0 0 0-2-2H4a2 2 0 0 0-2 2v16a2 2 0 0 0-2 2v2a2 2 0 0 0 2 1zM30 5a1 1 0 1 1 0 1 1 1 0 0 1 0-1zM3 7l1-1h21l1 1v2l-1 1V8a1 1 0 0 0-1 0H5a1 1 0 0 0-1 0v13l1 1h19a1 1 0 0 0 1-1v-9l1-1v12H3V7zm5 7a2 2 0 1 0 1 3l2 1a1 1 0 0 0 1-1l4-4 3 3a1 1 0 0 0 1 0l3-3v8H5V9h18v2l-3 4-4-3a1 1 0 0 0-1 0l-4 4h-1v-1a2 2 0 0 0-2-1zm1 1a1 1 0 1 1-2 0 1 1 0 0 1 2 0zm3 9h5v1h-5v-1zM1 25l1-1h9v1a2 2 0 0 0 1 1h5a2 2 0 0 0 1-1v-1h9l1 1v2a1 1 0 0 1-1 0H2a1 1 0 0 1-1 0v-2z" style="fill:var(--color1, #2e2f42)"/></symbol><symbol id="icon-facebook" viewBox="0 0 32 32"><path d="M21 5h3V0h-4c-4 0-7 3-7 8v4H8v6h5v14h6V18h4l1-6h-5V8c0-2 0-3 2-3z"/></symbol><symbol id="icon-customer-2" viewBox="0 0 25 32"><path d="M11 2H9a17 17 0 0 0-6 1L2 4v13h1a23 23 0 0 1 2-1 21 21 0 0 1 5 0v2a16 16 0 0 0-1 0 20 20 0 0 0-4 0l-5 2V3a18 18 0 0 1 5-2 18 18 0 0 1 5-1 18 18 0 0 1 3 0v2a14 14 0 0 0-2 0zm3 2h1a19 19 0 0 0 5-1l4-2v17a18 18 0 0 1-5 2 18 18 0 0 1-4 1 14 14 0 0 1-4 0V3a14 14 0 0 0 3 1zm8 0h-2a21 21 0 0 1-5 1h-2v14h2a17 17 0 0 0 4 0 17 17 0 0 0 3-2V4zM2 26a1 1 0 0 0-1 0 1 1 0 0 0-1 0 1 1 0 0 0 0 1v3a1 1 0 0 0 1 0 1 1 0 0 0 1-1H1v-2a1 1 0 0 1 0-1v1h1a1 1 0 0 0 0-1zm3 0a1 1 0 0 0-1 0 1 1 0 0 0 0 1v3a1 1 0 0 0 1 0 1 1 0 0 0 1-1v-2a1 1 0 0 0 0-1 1 1 0 0 0-1 0zm0 3H4v-3h1v3zm5 1v-4H9v2l-1-2H7v4h1v-3l1 2v-2 3h1zm4-4a1 1 0 0 0-1 0h-1v4-2h1a1 1 0 0 0 1 0v-1a2 2 0 0 0 0-1zm-1 1a1 1 0 0 1 0 1h-1v-2h1v1zm3-1-1 4h1v-1h1v1l-1-4zm0 2v-1 1zm4 0-1-2v4-3l1 3h1v-4h-1v2zm4-2-1 1v-1h-1l1 2v2h1v-2l1-2h-1zM0 31v1-1h1-1zm2 0v1h1v-1H2zm0 1 1-1v1H2zm3 0v-1H4a1 1 0 0 0 1 1v-1 1zm2-1v1h1-1v-1zm2 0v1-1zm2 1v-1 1-1 1h1v-1h-1v1zm2 0h1v-1h-1 1-1v1h1-1zm5-1h-1v1h1v-1zm2 1v-1h-1v1h1zm2 0v-1 1h1-1zm0-1zm2 1h1v-1h-1 1-1v1h1-1z"/></symbol><symbol id="icon-customer-3" viewBox="0 0 34 32"><path d="m5 31 1 1a1 1 0 0 1-1 0 2 2 0 0 1-1 0 1 1 0 0 1-1 0 1 1 0 0 1 0-1 1 1 0 0 1 0-1l1-1h1l1 1H5a2 2 0 0 0-1-1 1 1 0 0 0 0 1 1 1 0 0 0-1 0 1 1 0 0 0 0 1 1 1 0 0 0 1 1h1a1 1 0 0 0 0-1zm5 0v1H9a2 2 0 0 1-1 0 1 1 0 0 1-1-1 1 1 0 0 1 0-1h1v-1h1l1 1a1 1 0 0 1 0 1zm0 0a1 1 0 0 0 0-1 1 1 0 0 0-1 0 2 2 0 0 0-1 0v2h1l1-1zm4 0 1-2v3-2l-1 1v1-1l-2-1v2-3h1l1 2zm4 0v1h-1v-3h2a1 1 0 0 1 0 1 1 1 0 0 1 1 0 1 1 0 0 1-1 1 2 2 0 0 1-1 0zm0 0h1a1 1 0 0 0 0-1 1 1 0 0 0-1-1v2zm6 1h-1v-1h-2v1l1-3 2 3zm-3-1h2l-1-1-1 1zm4-2h1l1 2v-2h1v3h-1l-1-2v2h-1v-3zm6 2v1-1l-2-2h1l1 1a2 2 0 0 1 0 1v-1l1-1-1 2zm-18-6h1l7-6 3-7-4-3v9c-1 3-4 5-7 7z"/><path d="M12 24c3-1 6-4 7-7s1-6 0-9l-4-4a16 16 0 0 1-3 20zm16-9c-1 3-3 6-6 8a17 17 0 0 1-2 1l6-3 4-5-2-1z"/><path d="m27 14-3-2c0 3 0 5-2 7l-6 6h1l7-4c2-1 3-4 3-7zM13 3l-3-3C7 1 4 3 3 5l-3 7c0 3 1 5 3 8s5 4 8 4c3-3 5-6 5-10s-1-8-3-11zm21 11c0-3-1-7-4-9s-7-4-11-4a17 17 0 0 0-5 1l19 17 1-5z"/></symbol><symbol id="icon-customer-4" viewBox="0 0 66 32"><path d="M10 10c-2 0-3 1-3 3 0 1 1 3 3 3s4-2 4-3c0-2-2-3-4-3zm25-1c0-3-1-5-3-6l-7-3c-2 0-5 1-7 3l-2 6v13s19-2 19-13zM0 26l2 4 5 2 5-2c2-1 2-2 2-4v-9S0 18 0 26zm7 1H6l-1-1c0-1 0 0 0 0l1-1v-1h1l1 1a1 1 0 0 1 0 2H7c-1 0 0 0 0 0zm12-2v3-3zm2 1v1h-2v-1h2zm0-1h-2 2zm3 1v1l-1 1a1 1 0 0 1-1 0 1 1 0 0 1-1 0 2 2 0 0 1 0-1 2 2 0 0 1 0-1v-1h2l1 1zm-1 0v-1a1 1 0 0 0-1 0v2h1v-1zm3 1h-1a4 4 0 0 1 0-1 1 1 0 0 1-1 0 1 1 0 0 1 0-1 1 1 0 0 1 1 0 2 2 0 0 1 1 0h1v1h-1a1 1 0 0 0 0-1 1 1 0 0 0-1 0v1h1a1 1 0 0 1 1 1l-1 1h-1l-1-1c0-1 0 0 0 0h2zm3-2v3h-1v-3h1zm1 0h-3 3zm2 2v1h-1v-1h1zm-1-2v3h-1v-3h1zm1 1h-1 1zm0-1h-1 1zm1 0h2v1a1 1 0 0 1-1 1h-1v-1h1a1 1 0 0 0 1 0l-1-1c-1 0 0 0 0 0h-1v3-3zm2 3-1-2h1v2zm3-1h-1v-1h1a1 1 0 0 0 1 0v-1c0-1 0 0 0 0h-1v3h-1v-3h2a1 1 0 0 1 0 1v1a2 2 0 0 1-1 0zm4 0v1h-2v-1h2zm-1-2v3h-1v-3h1zm1 1h-2 2zm0-1h-2 2zm2 0v3h-1v-3h1zm1 0h-3 3zm3 2v1h-2v-1h2zm-2-2v3-3zm2 1h-2 2zm0-1h-2 2zm0 0h2l1 1a1 1 0 0 1-1 0 1 1 0 0 1 0 1h-1v-1h1v-1a1 1 0 0 0-1 0v3h-1v-3zm2 3-1-2h1l1 2h-1zm3-1h-1a4 4 0 0 1 0-1 2 2 0 0 1-1 0 1 1 0 0 1 0-1h1a2 2 0 0 1 1 0l1 1h-1a1 1 0 0 0 0-1 1 1 0 0 0-1 0v1h1a1 1 0 0 1 1 1h-1v1h-1a1 1 0 0 1-1 0v-1c0-1 0 0 0 0h1a1 1 0 0 0 1 0z"/></symbol><symbol id="icon-customer-6" viewBox="0 0 67 32"><path d="M34 15a2 2 0 0 1-1-1v-2l1-2h3v2h-1v-1a1 1 0 0 0-1 0 2 2 0 0 0 0 1v3h1a3 3 0 0 0 0-1h1v1l-2 1-1-1zm5 0-1-1v-2l1-2h3v5l-2 1-1-1zm2 0v-4h-1c-1 0 0 0 0 0a1 1 0 0 0-1 0v3l1 1a1 1 0 0 0 1 0zm2-5h2l1 4 1-4h1v6h-1v-4l-1 4h-1l-1-4v4h-1v-6zm6 0h2c2 0 2 0 2 2l-2 1v3h-2v-6zm2 2a1 1 0 0 0 1 0 2 2 0 0 0 0-1 1 1 0 0 0-1 0v1zm4-2h1l1 6h-1v-2h-1v2h-2l2-6zm1 4-1-3v3h1zm3-4 2 3v-3h1v6h-1l-1-4v4h-1v-6zm5 3-1-3h1l1 2 1-2h1l-1 3v3h-2v-3zm-28 5h-1v3h-1v-3h-1 3zm3 3h-1v-1h-1l-1 1 1-3h1l1 3zm-2-1h1l-1-1v1zm4 1a2 2 0 0 0 0-1h1-1 1v1a2 2 0 0 1-1 0 2 2 0 0 1-1 0 1 1 0 0 1 0-1 1 1 0 0 1-1 0 1 1 0 0 1 0-1h1a1 1 0 0 1 0-1 2 2 0 0 1 1 0 2 2 0 0 1 1 0v1a1 1 0 0 0-1 0 2 2 0 0 0 0-1 1 1 0 0 0-1 1 1 1 0 0 0 0 1 1 1 0 0 0 0 1h1zm4 0h1-2v-3h1v3zm2 0v-3 3zm2-3 2 2v-2 3l-2-2v2-3zm5 0h-1v1h1v1h-1v1h1-2v-3h2zM11 2l18 4v16l-18-4V2zm-1-1v17l20 6V6L10 1z"/><path d="M21 32 0 27V9l21 5v18z"/><path d="m10 2 18 4-8 7L2 8l8-6zm0-1L0 9l21 5 9-8-20-5zm12 30 8-7-8-3v10z"/></symbol><symbol id="icon-customer-1" viewBox="0 0 28 32"><path d="m4 0 5 5H0v22h23v-9l5 5V0H4zm19 18L9 5h14v13zm-4 5H4V9h1v13h14v1zM7 31l-1-1v2h1v-1l1-1H7v1zm2-1 1 2H9v-1H8v1-2h1zm-1 1h1v-1l-1 1zm3 0a1 1 0 0 1 0-1 1 1 0 0 1 1-1v1a1 1 0 0 1 0 1h1a1 1 0 0 1-1 1h1-2a1 1 0 0 1 0-1zm0 0v1h1l-1-1zm1-1h-1a1 1 0 0 0 1 0zm4 1h-1v1l-1-1v-1h2-1v-1l-1 1a2 2 0 0 0 0 1v1h2a1 1 0 0 0 0-1zm2 0v-1a1 1 0 0 0-1 0 1 1 0 0 0 0-1v1a1 1 0 0 0-1 0 2 2 0 0 0 0 1v1h1a1 1 0 0 0 1 0v-1zm0 0a1 1 0 0 1-1 0v1a1 1 0 0 1 0-1h-1l1-1h1v1z"/></symbol><symbol id="icon-instagram" viewBox="0 0 32 32"><path d="m32 9-1-3a8 8 0 0 0-2-3 8 8 0 0 0-2-2l-4-1A110 110 0 0 0 6 1a8 8 0 0 0-3 2 8 8 0 0 0-2 3L0 9a110 110 0 0 0 1 17 8 8 0 0 0 2 3 8 8 0 0 0 3 2l3 1a117 117 0 0 0 18-1 8 8 0 0 0 4-5l1-3V9zm-3 13v3a5 5 0 0 1-4 3l-2 1a113 113 0 0 1-16-1 5 5 0 0 1-2-1 5 5 0 0 1-1-2l-1-3A113 113 0 0 1 4 7a5 5 0 0 1 1-2 5 5 0 0 1 2-1l3-1a113 113 0 0 1 16 1 5 5 0 0 1 1 1 5 5 0 0 1 2 2v15z"/><path d="M16 8a8 8 0 1 0 0 16 8 8 0 0 0 0-16zm0 13a5 5 0 0 1 0-10 5 5 0 0 1 0 10zM27 7a2 2 0 1 1-4 0 2 2 0 0 1 4 0z"/></symbol><symbol id="icon-linkedin" viewBox="0 0 32 32"><path d="M32 32V20c0-5-1-10-8-10-3 0-5 2-6 4v-3h-7v21h7V21c0-2 0-5 4-5 3 0 3 3 3 6v10h7zM1 11h6v21H1V11zM4 0C2 0 0 2 0 4s2 4 4 4 4-2 4-4a4 4 0 0 0-4-4z"/></symbol><symbol id="icon-customer-5" viewBox="0 0 59 32"><path d="m15 25 1 1h-1v1h-2v-4h1l1 1a1 1 0 0 1 0 1zm-2 0h2v-1h-2v1zm2 1v-1a1 1 0 0 0-1 0h-1v1h1a1 1 0 0 0 1 0zm4 1-1-2h-1v2-4h1l1 1v1l1 2h-1zm-2-2h1l1-1a1 1 0 0 0-1 0h-1v1zm6 1h-2v1h-1l2-4h1l1 4h-1v-1zm0 0-1-2v2h1zm5 1-2-3v3h-1v-4h1l2 3v-3 4zm5-1-1 1a3 3 0 0 1-1 0h-1v-4h1l1 1h1a2 2 0 0 1 0 2zm-1 0v-2a1 1 0 0 0-1 0h-1v2h2zM23 4s10 3 10 8v9s-10-4-10-9V4zm19 15c2-2 4-2 7-3v-2c-3 1-5 2-7 5z"/><path d="M41 19c2-2 4-5 8-6V6s-15 5-14 12v12l1-1v-1c1-3 2-6 5-9z"/><path d="M40 24v-3a11 11 0 0 0-3 8 44 44 0 0 0 3-2 11 11 0 0 1 0-3zm0 0a11 11 0 0 0 0 3c4-2 9-5 9-9v-1l-8 3a11 11 0 0 0-1 4z"/></symbol><symbol id="icon-twitter" viewBox="0 0 32 32"><path d="m32 6-4 1a7 7 0 0 0 3-4 13 13 0 0 1-4 2 7 7 0 0 0-5-2 7 7 0 0 0-6 8C10 11 5 8 2 4a7 7 0 0 0-1 4 7 7 0 0 0 3 5 6 6 0 0 1-3-1c0 3 3 6 6 7a7 7 0 0 1-2 0 6 6 0 0 1-1 0c0 2 3 4 6 4a13 13 0 0 1-8 3H0a18 18 0 0 0 10 3A19 19 0 0 0 29 9a13 13 0 0 0 3-3z"/></symbol><symbol id="email-form-icon" viewBox="0 0 24 32"><path d="M20 8H4l-2 2v12l2 2h16l2-2V10l-2-2zm0 4-7 5h-2l-7-5 1-1 7 4 7-4a1 1 0 1 1 1 1z"/></symbol><symbol id="person-form-icon" viewBox="0 0 32 32"><path 
d="M16 16a5 5 0 1 0 0-11 5 5 0 0 0 0 11zm0 3c-4 0-11 1-11 5v1l2 2h18l2-2v-1c0-4-7-5-11-5z"/></symbol><symbol id="phone-form-icon" viewBox="0 0 24 32"><path d="M20 18h-3l-1 1-2 2-7-7 2-2a2 2 0 0 0 1-1V8L8 7H6L4 9c1 8 7 14 15 15l2-2v-2l-1-2z"/></symbol><symbol id="icon-close" viewBox="0 0 32 32"><path d="m32 3-3-3-13 13L3 0 0 3l13 13L0 29l3 3 13-13 13 13 3-3-13-13L32 3z"/></symbol><symbol id="icon-checkmark" viewBox="0 0 40 32">
<path fill="#f4f4fd" style="fill: var(--color1, #f4f4fd)" d="M33.782 1.020c0.691-0.662 1.611-1.027 2.565-1.020s1.869 0.387 2.55 1.059c0.681 0.672 1.076 1.584 1.101 2.543s-0.321 1.891-0.966 2.598l-19.578 24.617c-0.337 0.365-0.743 0.657-1.195 0.86s-0.939 0.312-1.434 0.322c-0.495 0.009-0.986-0.082-1.445-0.268s-0.876-0.463-1.226-0.815l-12.984-13.054c-0.362-0.339-0.652-0.747-0.853-1.201s-0.309-0.944-0.318-1.441 0.082-0.99 0.267-1.451c0.185-0.461 0.461-0.879 0.81-1.231s0.766-0.628 1.224-0.814 0.949-0.277 1.443-0.269c0.494 0.009 0.981 0.118 1.433 0.32s0.858 0.494 1.195 0.857l10.275 10.325 17.042-21.83c0.031-0.038 0.063-0.074 0.098-0.109h-0.005z"></path>
</symbol><symbol id="icon-subscribe" viewBox="0 0 32 32">
<path fill="#fff" style="fill: var(--color1, #fff)" d="M32 2.667l-32 15 10.227 3.156 15.773-12.323-11.998 13.488 0.010 0.003-0.012-0.003v7.345l5.735-5.576 7.265 2.242 5-23.333z"></path>
</symbol></defs></svg>